<?xml version="1.0" encoding="utf-8" standalone="no"?>
<!DOCTYPE svg PUBLIC "-//W3C//DTD SVG 1.1//EN"
  "http://www.w3.org/Graphics/SVG/1.1/DTD/svg11.dtd">
<svg xmlns:xlink="http://www.w3.org/1999/xlink" width="554.4pt" height="554.4pt" viewBox="0 0 554.4 554.4" xmlns="http://www.w3.org/2000/svg" version="1.1">
 <metadata>
  <rdf:RDF xmlns:dc="http://purl.org/dc/elements/1.1/" xmlns:cc="http://creativecommons.org/ns#" xmlns:rdf="http://www.w3.org/1999/02/22-rdf-syntax-ns#">
   <cc:Work>
    <dc:type rdf:resource="http://purl.org/dc/dcmitype/StillImage"/>
    <dc:date>2025-12-26T20:02:50.280780</dc:date>
    <dc:format>image/svg+xml</dc:format>
    <dc:creator>
     <cc:Agent>
      <dc:title>Matplotlib v3.10.0, https://matplotlib.org/</dc:title>
     </cc:Agent>
    </dc:creator>
   </cc:Work>
  </rdf:RDF>
 </metadata>
 <defs>
  <style type="text/css">*{stroke-linejoin: round; stroke-linecap: butt}</style>
 </defs>
 <g id="figure_1">
  <g id="patch_1">
   <path d="M 0 554.4 
L 554.4 554.4 
L 554.4 0 
L 0 0 
z
" style="fill: #ffffff"/>
  </g>
  <g id="axes_1">
   <g id="line2d_1">
    <path d="M 488.229001 183.243835 
L 51.247904 229.172399 
" clip-path="url(#p8b92abe28b)" style="fill: none; stroke: #c95d5d; stroke-opacity: 0.304926; stroke-width: 10; stroke-linecap: round"/>
   </g>
   <g id="line2d_2">
    <path d="M 348.582926 57.505945 
L 51.247904 229.172399 
" clip-path="url(#p8b92abe28b)" style="fill: none; stroke: #c95d5d; stroke-opacity: 0.326124; stroke-width: 10; stroke-linecap: round"/>
   </g>
   <g id="line2d_3">
    <path d="M 508.2 277.2 
L 348.582926 57.505945 
" clip-path="url(#p8b92abe28b)" style="fill: none; stroke: #c95d5d; stroke-opacity: 0.343808; stroke-width: 10; stroke-linecap: round"/>
   </g>
   <g id="line2d_4">
    <path d="M 161.7 77.148132 
L 51.247904 229.172399 
" clip-path="url(#p8b92abe28b)" style="fill: none; stroke: #c95d5d; stroke-opacity: 0.363521; stroke-width: 10; stroke-linecap: round"/>
   </g>
   <g id="line2d_5">
    <path d="M 508.2 277.2 
L 51.247904 229.172399 
" clip-path="url(#p8b92abe28b)" style="fill: none; stroke: #c95d5d; stroke-opacity: 0.395149; stroke-width: 10; stroke-linecap: round"/>
   </g>
   <g id="line2d_6">
    <path d="M 51.247904 229.172399 
L 431.76917 448.866455 
" clip-path="url(#p8b92abe28b)" style="fill: none; stroke: #c95d5d; stroke-opacity: 0.398577; stroke-width: 10; stroke-linecap: round"/>
   </g>
   <g id="line2d_7">
    <path d="M 431.76917 105.533545 
L 161.7 77.148132 
" clip-path="url(#p8b92abe28b)" style="fill: none; stroke: #c95d5d; stroke-opacity: 0.447291; stroke-width: 10; stroke-linecap: round"/>
   </g>
   <g id="line2d_8">
    <path d="M 431.76917 105.533545 
L 51.247904 229.172399 
" clip-path="url(#p8b92abe28b)" style="fill: none; stroke: #c95d5d; stroke-opacity: 0.45317; stroke-width: 10; stroke-linecap: round"/>
   </g>
   <g id="line2d_9">
    <path d="M 488.229001 183.243835 
L 431.76917 105.533545 
" clip-path="url(#p8b92abe28b)" style="fill: none; stroke: #c95d5d; stroke-opacity: 0.57831; stroke-width: 10; stroke-linecap: round"/>
   </g>
   <g id="patch_2">
    <path d="M 508.2 311.85 
C 517.389287 311.85 526.203443 308.199057 532.70125 301.70125 
C 539.199057 295.203443 542.85 286.389287 542.85 277.2 
C 542.85 268.010713 539.199057 259.196557 532.70125 252.69875 
C 526.203443 246.200943 517.389287 242.55 508.2 242.55 
C 499.010713 242.55 490.196557 246.200943 483.69875 252.69875 
C 477.200943 259.196557 473.55 268.010713 473.55 277.2 
C 473.55 286.389287 477.200943 295.203443 483.69875 301.70125 
C 490.196557 308.199057 499.010713 311.85 508.2 311.85 
z
" clip-path="url(#p8b92abe28b)" style="fill: #ff8a8a; stroke: #000000; stroke-width: 2.5; stroke-linejoin: miter"/>
   </g>
   <g id="patch_3">
    <path d="M 488.229001 217.893835 
C 497.418288 217.893835 506.232443 214.242893 512.730251 207.745085 
C 519.228058 201.247278 522.879001 192.433123 522.879001 183.243835 
C 522.879001 174.054548 519.228058 165.240393 512.730251 158.742585 
C 506.232443 152.244778 497.418288 148.593835 488.229001 148.593835 
C 479.039713 148.593835 470.225558 152.244778 463.727751 158.742585 
C 457.229943 165.240393 453.579001 174.054548 453.579001 183.243835 
C 453.579001 192.433123 457.229943 201.247278 463.727751 207.745085 
C 470.225558 214.242893 479.039713 217.893835 488.229001 217.893835 
z
" clip-path="url(#p8b92abe28b)" style="fill: #ff8a8a; stroke: #000000; stroke-width: 2.5; stroke-linejoin: miter"/>
   </g>
   <g id="patch_4">
    <path d="M 431.76917 140.183545 
C 440.958457 140.183545 449.772613 136.532603 456.27042 130.034795 
C 462.768227 123.536988 466.41917 114.722833 466.41917 105.533545 
C 466.41917 96.344258 462.768227 87.530103 456.27042 81.032295 
C 449.772613 74.534488 440.958457 70.883545 431.76917 70.883545 
C 422.579883 70.883545 413.765728 74.534488 407.26792 81.032295 
C 400.770113 87.530103 397.11917 96.344258 397.11917 105.533545 
C 397.11917 114.722833 400.770113 123.536988 407.26792 130.034795 
C 413.765728 136.532603 422.579883 140.183545 431.76917 140.183545 
z
" clip-path="url(#p8b92abe28b)" style="fill: #ff8a8a; stroke: #000000; stroke-width: 2.5; stroke-linejoin: miter"/>
   </g>
   <g id="patch_5">
    <path d="M 348.582926 92.155945 
C 357.772213 92.155945 366.586368 88.505002 373.084176 82.007195 
C 379.581983 75.509387 383.232926 66.695232 383.232926 57.505945 
C 383.232926 48.316657 379.581983 39.502502 373.084176 33.004695 
C 366.586368 26.506887 357.772213 22.855945 348.582926 22.855945 
C 339.393638 22.855945 330.579483 26.506887 324.081676 33.004695 
C 317.583868 39.502502 313.932926 48.316657 313.932926 57.505945 
C 313.932926 66.695232 317.583868 75.509387 324.081676 82.007195 
C 330.579483 88.505002 339.393638 92.155945 348.582926 92.155945 
z
" clip-path="url(#p8b92abe28b)" style="fill: #7ad6d0; stroke: #000000; stroke-width: 2.5; stroke-linejoin: miter"/>
   </g>
   <g id="patch_6">
    <path d="M 253.053925 82.115442 
C 262.243212 82.115442 271.057368 78.4645 277.555175 71.966692 
C 284.052982 65.468885 287.703925 56.65473 287.703925 47.465442 
C 287.703925 38.276155 284.052982 29.462 277.555175 22.964192 
C 271.057368 16.466385 262.243212 12.815442 253.053925 12.815442 
C 243.864638 12.815442 235.050482 16.466385 228.552675 22.964192 
C 222.054868 29.462 218.403925 38.276155 218.403925 47.465442 
C 218.403925 56.65473 222.054868 65.468885 228.552675 71.966692 
C 235.050482 78.4645 243.864638 82.115442 253.053925 82.115442 
z
" clip-path="url(#p8b92abe28b)" style="fill: #7ad6d0; stroke: #000000; stroke-width: 2.5; stroke-linejoin: miter"/>
   </g>
   <g id="patch_7">
    <path d="M 161.7 111.798132 
C 170.889287 111.798132 179.703443 108.147189 186.20125 101.649382 
C 192.699057 95.151574 196.35 86.337419 196.35 77.148132 
C 196.35 67.958844 192.699057 59.144689 186.20125 52.646882 
C 179.703443 46.149074 170.889287 42.498132 161.7 42.498132 
C 152.510713 42.498132 143.696557 46.149074 137.19875 52.646882 
C 130.700943 59.144689 127.05 67.958844 127.05 77.148132 
C 127.05 86.337419 130.700943 95.151574 137.19875 101.649382 
C 143.696557 108.147189 152.510713 111.798132 161.7 111.798132 
z
" clip-path="url(#p8b92abe28b)" style="fill: #7ad6d0; stroke: #000000; stroke-width: 2.5; stroke-linejoin: miter"/>
   </g>
   <g id="patch_8">
    <path d="M 90.317074 176.071607 
C 99.506362 176.071607 108.320517 172.420664 114.818324 165.922857 
C 121.316132 159.425049 124.967074 150.610894 124.967074 141.421607 
C 124.967074 132.232319 121.316132 123.418164 114.818324 116.920357 
C 108.320517 110.422549 99.506362 106.771607 90.317074 106.771607 
C 81.127787 106.771607 72.313632 110.422549 65.815824 116.920357 
C 59.318017 123.418164 55.667074 132.232319 55.667074 141.421607 
C 55.667074 150.610894 59.318017 159.425049 65.815824 165.922857 
C 72.313632 172.420664 81.127787 176.071607 90.317074 176.071607 
z
" clip-path="url(#p8b92abe28b)" style="fill: #6ac4d9; stroke: #000000; stroke-width: 2.5; stroke-linejoin: miter"/>
   </g>
   <g id="patch_9">
    <path d="M 51.247904 263.822399 
C 60.437192 263.822399 69.251347 260.171457 75.749154 253.673649 
C 82.246962 247.175842 85.897904 238.361687 85.897904 229.172399 
C 85.897904 219.983112 82.246962 211.168957 75.749154 204.671149 
C 69.251347 198.173342 60.437192 194.522399 51.247904 194.522399 
C 42.058617 194.522399 33.244462 198.173342 26.746654 204.671149 
C 20.248847 211.168957 16.597904 219.983112 16.597904 229.172399 
C 16.597904 238.361687 20.248847 247.175842 26.746654 253.673649 
C 33.244462 260.171457 42.058617 263.822399 51.247904 263.822399 
z
" clip-path="url(#p8b92abe28b)" style="fill: #6ac4d9; stroke: #000000; stroke-width: 2.5; stroke-linejoin: miter"/>
   </g>
   <g id="patch_10">
    <path d="M 51.247904 359.877601 
C 60.437192 359.877601 69.251347 356.226658 75.749154 349.728851 
C 82.246962 343.231043 85.897904 334.416888 85.897904 325.227601 
C 85.897904 316.038313 82.246962 307.224158 75.749154 300.726351 
C 69.251347 294.228543 60.437192 290.577601 51.247904 290.577601 
C 42.058617 290.577601 33.244462 294.228543 26.746654 300.726351 
C 20.248847 307.224158 16.597904 316.038313 16.597904 325.227601 
C 16.597904 334.416888 20.248847 343.231043 26.746654 349.728851 
C 33.244462 356.226658 42.058617 359.877601 51.247904 359.877601 
z
" clip-path="url(#p8b92abe28b)" style="fill: #6ac4d9; stroke: #000000; stroke-width: 2.5; stroke-linejoin: miter"/>
   </g>
   <g id="patch_11">
    <path d="M 90.317074 447.628393 
C 99.506362 447.628393 108.320517 443.977451 114.818324 437.479643 
C 121.316132 430.981836 124.967074 422.167681 124.967074 412.978393 
C 124.967074 403.789106 121.316132 394.974951 114.818324 388.477143 
C 108.320517 381.979336 99.506362 378.328393 90.317074 378.328393 
C 81.127787 378.328393 72.313632 381.979336 65.815824 388.477143 
C 59.318017 394.974951 55.667074 403.789106 55.667074 412.978393 
C 55.667074 422.167681 59.318017 430.981836 65.815824 437.479643 
C 72.313632 443.977451 81.127787 447.628393 90.317074 447.628393 
z
" clip-path="url(#p8b92abe28b)" style="fill: #a8d6c0; stroke: #000000; stroke-width: 2.5; stroke-linejoin: miter"/>
   </g>
   <g id="patch_12">
    <path d="M 161.7 511.901868 
C 170.889287 511.901868 179.703443 508.250926 186.20125 501.753118 
C 192.699057 495.255311 196.35 486.441156 196.35 477.251868 
C 196.35 468.062581 192.699057 459.248426 186.20125 452.750618 
C 179.703443 446.252811 170.889287 442.601868 161.7 442.601868 
C 152.510713 442.601868 143.696557 446.252811 137.19875 452.750618 
C 130.700943 459.248426 127.05 468.062581 127.05 477.251868 
C 127.05 486.441156 130.700943 495.255311 137.19875 501.753118 
C 143.696557 508.250926 152.510713 511.901868 161.7 511.901868 
z
" clip-path="url(#p8b92abe28b)" style="fill: #a8d6c0; stroke: #000000; stroke-width: 2.5; stroke-linejoin: miter"/>
   </g>
   <g id="patch_13">
    <path d="M 253.053925 541.584558 
C 262.243212 541.584558 271.057368 537.933615 277.555175 531.435808 
C 284.052982 524.938 287.703925 516.123845 287.703925 506.934558 
C 287.703925 497.74527 284.052982 488.931115 277.555175 482.433308 
C 271.057368 475.9355 262.243212 472.284558 253.053925 472.284558 
C 243.864638 472.284558 235.050482 475.9355 228.552675 482.433308 
C 222.054868 488.931115 218.403925 497.74527 218.403925 506.934558 
C 218.403925 516.123845 222.054868 524.938 228.552675 531.435808 
C 235.050482 537.933615 243.864638 541.584558 253.053925 541.584558 
z
" clip-path="url(#p8b92abe28b)" style="fill: #a8d6c0; stroke: #000000; stroke-width: 2.5; stroke-linejoin: miter"/>
   </g>
   <g id="patch_14">
    <path d="M 348.582926 531.544055 
C 357.772213 531.544055 366.586368 527.893113 373.084176 521.395305 
C 379.581983 514.897498 383.232926 506.083343 383.232926 496.894055 
C 383.232926 487.704768 379.581983 478.890613 373.084176 472.392805 
C 366.586368 465.894998 357.772213 462.244055 348.582926 462.244055 
C 339.393638 462.244055 330.579483 465.894998 324.081676 472.392805 
C 317.583868 478.890613 313.932926 487.704768 313.932926 496.894055 
C 313.932926 506.083343 317.583868 514.897498 324.081676 521.395305 
C 330.579483 527.893113 339.393638 531.544055 348.582926 531.544055 
z
" clip-path="url(#p8b92abe28b)" style="fill: #fff2b2; stroke: #000000; stroke-width: 2.5; stroke-linejoin: miter"/>
   </g>
   <g id="patch_15">
    <path d="M 431.76917 483.516455 
C 440.958457 483.516455 449.772613 479.865512 456.27042 473.367705 
C 462.768227 466.869897 466.41917 458.055742 466.41917 448.866455 
C 466.41917 439.677167 462.768227 430.863012 456.27042 424.365205 
C 449.772613 417.867397 440.958457 414.216455 431.76917 414.216455 
C 422.579883 414.216455 413.765728 417.867397 407.26792 424.365205 
C 400.770113 430.863012 397.11917 439.677167 397.11917 448.866455 
C 397.11917 458.055742 400.770113 466.869897 407.26792 473.367705 
C 413.765728 479.865512 422.579883 483.516455 431.76917 483.516455 
z
" clip-path="url(#p8b92abe28b)" style="fill: #fff2b2; stroke: #000000; stroke-width: 2.5; stroke-linejoin: miter"/>
   </g>
   <g id="patch_16">
    <path d="M 488.229001 405.806165 
C 497.418288 405.806165 506.232443 402.155222 512.730251 395.657415 
C 519.228058 389.159607 522.879001 380.345452 522.879001 371.156165 
C 522.879001 361.966877 519.228058 353.152722 512.730251 346.654915 
C 506.232443 340.157107 497.418288 336.506165 488.229001 336.506165 
C 479.039713 336.506165 470.225558 340.157107 463.727751 346.654915 
C 457.229943 353.152722 453.579001 361.966877 453.579001 371.156165 
C 453.579001 380.345452 457.229943 389.159607 463.727751 395.657415 
C 470.225558 402.155222 479.039713 405.806165 488.229001 405.806165 
z
" clip-path="url(#p8b92abe28b)" style="fill: #fff2b2; stroke: #000000; stroke-width: 2.5; stroke-linejoin: miter"/>
   </g>
   <g id="text_1">
    <text style="font-weight: 700; font-size: 40px; font-family: 'Arial'; text-anchor: middle" x="508.2" y="287.56875" transform="rotate(-0 508.2 287.56875)">1A</text>
   </g>
   <g id="text_2">
    <text style="font-weight: 700; font-size: 40px; font-family: 'Arial'; text-anchor: middle" x="488.229001" y="193.612585" transform="rotate(-0 488.229001 193.612585)">1B</text>
   </g>
   <g id="text_3">
    <text style="font-weight: 700; font-size: 40px; font-family: 'Arial'; text-anchor: middle" x="431.76917" y="115.902295" transform="rotate(-0 431.76917 115.902295)">1C</text>
   </g>
   <g id="text_4">
    <text style="font-weight: 700; font-size: 40px; font-family: 'Arial'; text-anchor: middle" x="348.582926" y="67.874695" transform="rotate(-0 348.582926 67.874695)">2A</text>
   </g>
   <g id="text_5">
    <text style="font-weight: 700; font-size: 40px; font-family: 'Arial'; text-anchor: middle" x="253.053925" y="57.834192" transform="rotate(-0 253.053925 57.834192)">2B</text>
   </g>
   <g id="text_6">
    <text style="font-weight: 700; font-size: 40px; font-family: 'Arial'; text-anchor: middle" x="161.7" y="87.516882" transform="rotate(-0 161.7 87.516882)">2C</text>
   </g>
   <g id="text_7">
    <text style="font-weight: 700; font-size: 40px; font-family: 'Arial'; text-anchor: middle" x="90.317074" y="151.790357" transform="rotate(-0 90.317074 151.790357)">3A</text>
   </g>
   <g id="text_8">
    <text style="font-weight: 700; font-size: 40px; font-family: 'Arial'; text-anchor: middle" x="51.247904" y="239.541149" transform="rotate(-0 51.247904 239.541149)">3B</text>
   </g>
   <g id="text_9">
    <text style="font-weight: 700; font-size: 40px; font-family: 'Arial'; text-anchor: middle" x="51.247904" y="335.596351" transform="rotate(-0 51.247904 335.596351)">3C</text>
   </g>
   <g id="text_10">
    <text style="font-weight: 700; font-size: 40px; font-family: 'Arial'; text-anchor: middle" x="90.317074" y="423.347143" transform="rotate(-0 90.317074 423.347143)">4A</text>
   </g>
   <g id="text_11">
    <text style="font-weight: 700; font-size: 40px; font-family: 'Arial'; text-anchor: middle" x="161.7" y="487.620618" transform="rotate(-0 161.7 487.620618)">4B</text>
   </g>
   <g id="text_12">
    <text style="font-weight: 700; font-size: 40px; font-family: 'Arial'; text-anchor: middle" x="253.053925" y="517.303308" transform="rotate(-0 253.053925 517.303308)">4C</text>
   </g>
   <g id="text_13">
    <text style="font-weight: 700; font-size: 40px; font-family: 'Arial'; text-anchor: middle" x="348.582926" y="507.262805" transform="rotate(-0 348.582926 507.262805)">5A</text>
   </g>
   <g id="text_14">
    <text style="font-weight: 700; font-size: 40px; font-family: 'Arial'; text-anchor: middle" x="431.76917" y="459.235205" transform="rotate(-0 431.76917 459.235205)">5B</text>
   </g>
   <g id="text_15">
    <text style="font-weight: 700; font-size: 40px; font-family: 'Arial'; text-anchor: middle" x="488.229001" y="381.524915" transform="rotate(-0 488.229001 381.524915)">5C</text>
   </g>
  </g>
 </g>
 <defs>
  <clipPath id="p8b92abe28b">
   <rect x="0" y="0" width="554.4" height="554.4"/>
  </clipPath>
 </defs>
</svg>
