<?xml version="1.0" encoding="utf-8" standalone="no"?>
<!DOCTYPE svg PUBLIC "-//W3C//DTD SVG 1.1//EN"
  "http://www.w3.org/Graphics/SVG/1.1/DTD/svg11.dtd">
<svg xmlns:xlink="http://www.w3.org/1999/xlink" width="623.19pt" height="318.139643pt" viewBox="0 0 623.19 318.139643" xmlns="http://www.w3.org/2000/svg" version="1.1">
 <metadata>
  <rdf:RDF xmlns:dc="http://purl.org/dc/elements/1.1/" xmlns:cc="http://creativecommons.org/ns#" xmlns:rdf="http://www.w3.org/1999/02/22-rdf-syntax-ns#">
   <cc:Work>
    <dc:type rdf:resource="http://purl.org/dc/dcmitype/StillImage"/>
    <dc:date>2025-12-25T21:32:25.221385</dc:date>
    <dc:format>image/svg+xml</dc:format>
    <dc:creator>
     <cc:Agent>
      <dc:title>Matplotlib v3.10.0, https://matplotlib.org/</dc:title>
     </cc:Agent>
    </dc:creator>
   </cc:Work>
  </rdf:RDF>
 </metadata>
 <defs>
  <style type="text/css">*{stroke-linejoin: round; stroke-linecap: butt}</style>
 </defs>
 <g id="figure_1">
  <g id="patch_1">
   <path d="M 0 318.139643 
L 623.19 318.139643 
L 623.19 0 
L 0 0 
z
" style="fill: #ffffff"/>
  </g>
  <g id="axes_1">
   <g id="patch_2">
    <path d="M 57.99 233.810625 
L 615.99 233.810625 
L 615.99 28.610625 
L 57.99 28.610625 
z
" style="fill: #ffffff"/>
   </g>
   <g id="line2d_1">
    <path d="M 234.416471 233.810625 
L 234.416471 28.610625 
" clip-path="url(#p9d9426c835)" style="fill: none; stroke-dasharray: 1.5,2.475; stroke-dashoffset: 0; stroke: #c1bebe; stroke-width: 1.5"/>
   </g>
   <g id="line2d_2">
    <path d="M 357.504706 233.810625 
L 357.504706 28.610625 
" clip-path="url(#p9d9426c835)" style="fill: none; stroke-dasharray: 1.5,2.475; stroke-dashoffset: 0; stroke: #c1bebe; stroke-width: 1.5"/>
   </g>
   <g id="line2d_3">
    <path d="M 480.592941 233.810625 
L 480.592941 28.610625 
" clip-path="url(#p9d9426c835)" style="fill: none; stroke-dasharray: 1.5,2.475; stroke-dashoffset: 0; stroke: #c1bebe; stroke-width: 1.5"/>
   </g>
   <g id="matplotlib.axis_1">
    <g id="xtick_1">
     <g id="line2d_4">
      <defs>
       <path id="mda57544b25" d="M 0 0 
L 0 6 
" style="stroke: #000000; stroke-width: 1.5"/>
      </defs>
      <g>
       <use xlink:href="#mda57544b25" x="90.813529" y="233.810625" style="stroke: #000000; stroke-width: 1.5"/>
      </g>
     </g>
     <g id="text_1">
      <text style="font-size: 12px; font-family: 'Arial'; fill: #131313" transform="translate(34.634338 303.902163) rotate(-45)">Population=25</text>
     </g>
    </g>
    <g id="xtick_2">
     <g id="line2d_5">
      <g>
       <use xlink:href="#mda57544b25" x="131.842941" y="233.810625" style="stroke: #000000; stroke-width: 1.5"/>
      </g>
     </g>
     <g id="text_2">
      <g id="patch_3">
       <path d="M 76.163585 311.854463 
L 134.388526 253.629523 
Q 136.93411 251.083938 134.388526 248.538354 
L 126.615212 240.765041 
Q 124.069628 238.219456 121.524044 240.765041 
L 63.299103 298.989981 
Q 60.753519 301.535565 63.299103 304.08115 
L 71.072417 311.854463 
Q 73.618001 314.400047 76.163585 311.854463 
z
" style="fill: #ffd700; stroke: #000000; stroke-linejoin: miter"/>
      </g>
      <text style="font-weight: 700; font-size: 12px; font-family: 'Arial'" transform="translate(71.943484 307.634361) rotate(-45)">Population=50</text>
     </g>
    </g>
    <g id="xtick_3">
     <g id="line2d_6">
      <g>
       <use xlink:href="#mda57544b25" x="172.872353" y="233.810625" style="stroke: #000000; stroke-width: 1.5"/>
      </g>
     </g>
     <g id="text_3">
      <text style="font-size: 12px; font-family: 'Arial'; fill: #131313" transform="translate(116.693161 303.876972) rotate(-45)">Population=75</text>
     </g>
    </g>
    <g id="xtick_4">
     <g id="line2d_7">
      <g>
       <use xlink:href="#mda57544b25" x="213.901765" y="233.810625" style="stroke: #000000; stroke-width: 1.5"/>
      </g>
     </g>
     <g id="text_4">
      <text style="font-size: 12px; font-family: 'Arial'; fill: #131313" transform="translate(153.003961 308.620775) rotate(-45)">Population=150</text>
     </g>
    </g>
    <g id="xtick_5">
     <g id="line2d_8">
      <g>
       <use xlink:href="#mda57544b25" x="254.931176" y="233.810625" style="stroke: #000000; stroke-width: 1.5"/>
      </g>
     </g>
     <g id="text_5">
      <text style="font-size: 12px; font-family: 'Arial'; fill: #131313" transform="translate(195.241199 307.387758) rotate(-45)">Meta-Lr:0.1-0.5</text>
     </g>
    </g>
    <g id="xtick_6">
     <g id="line2d_9">
      <g>
       <use xlink:href="#mda57544b25" x="295.960588" y="233.810625" style="stroke: #000000; stroke-width: 1.5"/>
      </g>
     </g>
     <g id="text_6">
      <text style="font-size: 12px; font-family: 'Arial'; fill: #131313" transform="translate(236.270611 307.387758) rotate(-45)">Meta-Lr:0.1-0.4</text>
     </g>
    </g>
    <g id="xtick_7">
     <g id="line2d_10">
      <g>
       <use xlink:href="#mda57544b25" x="336.99" y="233.810625" style="stroke: #000000; stroke-width: 1.5"/>
      </g>
     </g>
     <g id="text_7">
      <g id="patch_4">
       <path d="M 279.654689 313.485228 
L 339.535584 253.604332 
Q 342.081169 251.058748 339.535584 248.513163 
L 331.787462 240.765041 
Q 329.241877 238.219456 326.696293 240.765041 
L 266.815397 300.645936 
Q 264.269813 303.191521 266.815397 305.737105 
L 274.56352 313.485228 
Q 277.109104 316.030812 279.654689 313.485228 
z
" style="fill: #ffd700; stroke: #000000; stroke-linejoin: miter"/>
      </g>
      <text style="font-weight: 700; font-size: 12px; font-family: 'Arial'" transform="translate(275.434587 309.265126) rotate(-45)">Meta-Lr:0.1-0.3</text>
     </g>
    </g>
    <g id="xtick_8">
     <g id="line2d_11">
      <g>
       <use xlink:href="#mda57544b25" x="378.019412" y="233.810625" style="stroke: #000000; stroke-width: 1.5"/>
      </g>
     </g>
     <g id="text_8">
      <text style="font-size: 12px; font-family: 'Arial'; fill: #131313" transform="translate(346.851913 278.86528) rotate(-45)">Lr=1e-5</text>
     </g>
    </g>
    <g id="xtick_9">
     <g id="line2d_12">
      <g>
       <use xlink:href="#mda57544b25" x="419.048824" y="233.810625" style="stroke: #000000; stroke-width: 1.5"/>
      </g>
     </g>
     <g id="text_9">
      <g id="patch_5">
       <path d="M 391.172023 284.026717 
L 421.594408 253.604332 
Q 424.139992 251.058748 421.594408 248.513163 
L 413.846285 240.765041 
Q 411.300701 238.219456 408.755117 240.765041 
L 378.332731 271.187426 
Q 375.787147 273.73301 378.332731 276.278595 
L 386.080854 284.026717 
Q 388.626438 286.572302 391.172023 284.026717 
z
" style="fill: #ffd700; stroke: #000000; stroke-linejoin: miter"/>
      </g>
      <text style="font-weight: 700; font-size: 12px; font-family: 'Arial'" transform="translate(386.951921 279.806616) rotate(-45)">Lr=2e-5</text>
     </g>
    </g>
    <g id="xtick_10">
     <g id="line2d_13">
      <g>
       <use xlink:href="#mda57544b25" x="460.078235" y="233.810625" style="stroke: #000000; stroke-width: 1.5"/>
      </g>
     </g>
     <g id="text_10">
      <text style="font-size: 12px; font-family: 'Arial'; fill: #131313" transform="translate(428.910736 278.86528) rotate(-45)">Lr=5e-5</text>
     </g>
    </g>
    <g id="xtick_11">
     <g id="line2d_14">
      <g>
       <use xlink:href="#mda57544b25" x="501.107647" y="233.810625" style="stroke: #000000; stroke-width: 1.5"/>
      </g>
     </g>
     <g id="text_11">
      <text style="font-size: 12px; font-family: 'Arial'; fill: #131313" transform="translate(460.977569 287.853049) rotate(-45)">LoRA_r=8</text>
     </g>
    </g>
    <g id="xtick_12">
     <g id="line2d_15">
      <g>
       <use xlink:href="#mda57544b25" x="542.137059" y="233.810625" style="stroke: #000000; stroke-width: 1.5"/>
      </g>
     </g>
     <g id="text_12">
      <g id="patch_6">
       <path d="M 499.647012 298.669131 
L 544.682643 253.6335 
Q 547.228228 251.087916 544.682643 248.542331 
L 536.905353 240.765041 
Q 534.359768 238.219456 531.814184 240.765041 
L 486.778553 285.800671 
Q 484.232968 288.346256 486.778553 290.89184 
L 494.555844 298.669131 
Q 497.101428 301.214715 499.647012 298.669131 
z
" style="fill: #ffd700; stroke: #000000; stroke-linejoin: miter"/>
      </g>
      <text style="font-weight: 700; font-size: 12px; font-family: 'Arial'" transform="translate(495.422933 294.445052) rotate(-45)">LoRA_r=16</text>
     </g>
    </g>
    <g id="xtick_13">
     <g id="line2d_16">
      <g>
       <use xlink:href="#mda57544b25" x="583.166471" y="233.810625" style="stroke: #000000; stroke-width: 1.5"/>
      </g>
     </g>
     <g id="text_13">
      <text style="font-size: 12px; font-family: 'Arial'; fill: #131313" transform="translate(538.317781 292.571661) rotate(-45)">LoRA_r=32</text>
     </g>
    </g>
   </g>
   <g id="matplotlib.axis_2">
    <g id="ytick_1">
     <g id="line2d_17">
      <path d="M 57.99 233.810625 
L 615.99 233.810625 
" clip-path="url(#p9d9426c835)" style="fill: none; stroke-dasharray: 2.96,1.28; stroke-dashoffset: 0; stroke: #acacac; stroke-opacity: 0.3; stroke-width: 0.8"/>
     </g>
     <g id="line2d_18">
      <defs>
       <path id="m1bcb8685a3" d="M 0 0 
L -6 0 
" style="stroke: #000000; stroke-width: 1.5"/>
      </defs>
      <g>
       <use xlink:href="#m1bcb8685a3" x="57.99" y="233.810625" style="stroke: #000000; stroke-width: 1.5"/>
      </g>
     </g>
     <g id="text_14">
      <text style="font-weight: 700; font-size: 12px; font-family: 'Arial'; text-anchor: end" x="48.49" y="238.105312" transform="rotate(-0 48.49 238.105312)">0.1</text>
     </g>
    </g>
    <g id="ytick_2">
     <g id="line2d_19">
      <path d="M 57.99 182.510625 
L 615.99 182.510625 
" clip-path="url(#p9d9426c835)" style="fill: none; stroke-dasharray: 2.96,1.28; stroke-dashoffset: 0; stroke: #acacac; stroke-opacity: 0.3; stroke-width: 0.8"/>
     </g>
     <g id="line2d_20">
      <g>
       <use xlink:href="#m1bcb8685a3" x="57.99" y="182.510625" style="stroke: #000000; stroke-width: 1.5"/>
      </g>
     </g>
     <g id="text_15">
      <text style="font-weight: 700; font-size: 12px; font-family: 'Arial'; text-anchor: end" x="48.49" y="186.805312" transform="rotate(-0 48.49 186.805312)">0.2</text>
     </g>
    </g>
    <g id="ytick_3">
     <g id="line2d_21">
      <path d="M 57.99 131.210625 
L 615.99 131.210625 
" clip-path="url(#p9d9426c835)" style="fill: none; stroke-dasharray: 2.96,1.28; stroke-dashoffset: 0; stroke: #acacac; stroke-opacity: 0.3; stroke-width: 0.8"/>
     </g>
     <g id="line2d_22">
      <g>
       <use xlink:href="#m1bcb8685a3" x="57.99" y="131.210625" style="stroke: #000000; stroke-width: 1.5"/>
      </g>
     </g>
     <g id="text_16">
      <text style="font-weight: 700; font-size: 12px; font-family: 'Arial'; text-anchor: end" x="48.49" y="135.505312" transform="rotate(-0 48.49 135.505312)">0.3</text>
     </g>
    </g>
    <g id="ytick_4">
     <g id="line2d_23">
      <path d="M 57.99 79.910625 
L 615.99 79.910625 
" clip-path="url(#p9d9426c835)" style="fill: none; stroke-dasharray: 2.96,1.28; stroke-dashoffset: 0; stroke: #acacac; stroke-opacity: 0.3; stroke-width: 0.8"/>
     </g>
     <g id="line2d_24">
      <g>
       <use xlink:href="#m1bcb8685a3" x="57.99" y="79.910625" style="stroke: #000000; stroke-width: 1.5"/>
      </g>
     </g>
     <g id="text_17">
      <text style="font-weight: 700; font-size: 12px; font-family: 'Arial'; text-anchor: end" x="48.49" y="84.205312" transform="rotate(-0 48.49 84.205312)">0.4</text>
     </g>
    </g>
    <g id="ytick_5">
     <g id="line2d_25">
      <path d="M 57.99 28.610625 
L 615.99 28.610625 
" clip-path="url(#p9d9426c835)" style="fill: none; stroke-dasharray: 2.96,1.28; stroke-dashoffset: 0; stroke: #acacac; stroke-opacity: 0.3; stroke-width: 0.8"/>
     </g>
     <g id="line2d_26">
      <g>
       <use xlink:href="#m1bcb8685a3" x="57.99" y="28.610625" style="stroke: #000000; stroke-width: 1.5"/>
      </g>
     </g>
     <g id="text_18">
      <text style="font-weight: 700; font-size: 12px; font-family: 'Arial'; text-anchor: end" x="48.49" y="32.905312" transform="rotate(-0 48.49 32.905312)">0.5</text>
     </g>
    </g>
    <g id="text_19">
     <text style="font-weight: 700; font-size: 16px; font-family: 'Arial'; text-anchor: middle" x="18.6525" y="131.210625" transform="rotate(-90 18.6525 131.210625)">5D3S-QSA Score</text>
    </g>
   </g>
   <g id="line2d_27">
    <path d="M 90.813529 138.700425 
L 131.842941 73.241625 
L 172.872353 103.611225 
L 213.901765 104.893725 
" clip-path="url(#p9d9426c835)" style="fill: none; stroke: #1f77b4; stroke-width: 1.5; stroke-linecap: square"/>
   </g>
   <g id="line2d_28">
    <path d="M 254.931176 130.954125 
L 295.960588 104.945025 
L 336.99 105.047625 
" clip-path="url(#p9d9426c835)" style="fill: none; stroke: #ff7f0e; stroke-width: 1.5; stroke-linecap: square"/>
   </g>
   <g id="line2d_29">
    <path d="M 378.019412 191.026425 
L 419.048824 105.047625 
L 460.078235 101.610525 
" clip-path="url(#p9d9426c835)" style="fill: none; stroke: #2ca02c; stroke-width: 1.5; stroke-linecap: square"/>
   </g>
   <g id="line2d_30">
    <path d="M 501.107647 194.566125 
L 542.137059 105.047625 
L 583.166471 115.615425 
" clip-path="url(#p9d9426c835)" style="fill: none; stroke: #d62728; stroke-width: 1.5; stroke-linecap: square"/>
   </g>
   <g id="patch_7">
    <path d="M 57.99 233.810625 
L 57.99 28.610625 
" style="fill: none; stroke: #000000; stroke-width: 1.5; stroke-linejoin: miter; stroke-linecap: square"/>
   </g>
   <g id="patch_8">
    <path d="M 615.99 233.810625 
L 615.99 28.610625 
" style="fill: none; stroke: #000000; stroke-width: 1.5; stroke-linejoin: miter; stroke-linecap: square"/>
   </g>
   <g id="patch_9">
    <path d="M 57.99 233.810625 
L 615.99 233.810625 
" style="fill: none; stroke: #000000; stroke-width: 1.5; stroke-linejoin: miter; stroke-linecap: square"/>
   </g>
   <g id="patch_10">
    <path d="M 57.99 28.610625 
L 615.99 28.610625 
" style="fill: none; stroke: #000000; stroke-width: 1.5; stroke-linejoin: miter; stroke-linecap: square"/>
   </g>
   <g id="line2d_31">
    <defs>
     <path id="m4ce61fc442" d="M 0 5 
C 1.326016 5 2.597899 4.473168 3.535534 3.535534 
C 4.473168 2.597899 5 1.326016 5 0 
C 5 -1.326016 4.473168 -2.597899 3.535534 -3.535534 
C 2.597899 -4.473168 1.326016 -5 0 -5 
C -1.326016 -5 -2.597899 -4.473168 -3.535534 -3.535534 
C -4.473168 -2.597899 -5 -1.326016 -5 0 
C -5 1.326016 -4.473168 2.597899 -3.535534 3.535534 
C -2.597899 4.473168 -1.326016 5 0 5 
z
" style="stroke: #1f77b4; stroke-width: 2"/>
    </defs>
    <g clip-path="url(#p9d9426c835)">
     <use xlink:href="#m4ce61fc442" x="90.813529" y="138.700425" style="fill: #ffffff; stroke: #1f77b4; stroke-width: 2"/>
     <use xlink:href="#m4ce61fc442" x="131.842941" y="73.241625" style="fill: #ffffff; stroke: #1f77b4; stroke-width: 2"/>
     <use xlink:href="#m4ce61fc442" x="172.872353" y="103.611225" style="fill: #ffffff; stroke: #1f77b4; stroke-width: 2"/>
     <use xlink:href="#m4ce61fc442" x="213.901765" y="104.893725" style="fill: #ffffff; stroke: #1f77b4; stroke-width: 2"/>
    </g>
   </g>
   <g id="line2d_32">
    <defs>
     <path id="mf07f453997" d="M 0 5 
C 1.326016 5 2.597899 4.473168 3.535534 3.535534 
C 4.473168 2.597899 5 1.326016 5 0 
C 5 -1.326016 4.473168 -2.597899 3.535534 -3.535534 
C 2.597899 -4.473168 1.326016 -5 0 -5 
C -1.326016 -5 -2.597899 -4.473168 -3.535534 -3.535534 
C -4.473168 -2.597899 -5 -1.326016 -5 0 
C -5 1.326016 -4.473168 2.597899 -3.535534 3.535534 
C -2.597899 4.473168 -1.326016 5 0 5 
z
" style="stroke: #ff7f0e; stroke-width: 2"/>
    </defs>
    <g clip-path="url(#p9d9426c835)">
     <use xlink:href="#mf07f453997" x="254.931176" y="130.954125" style="fill: #ffffff; stroke: #ff7f0e; stroke-width: 2"/>
     <use xlink:href="#mf07f453997" x="295.960588" y="104.945025" style="fill: #ffffff; stroke: #ff7f0e; stroke-width: 2"/>
     <use xlink:href="#mf07f453997" x="336.99" y="105.047625" style="fill: #ffffff; stroke: #ff7f0e; stroke-width: 2"/>
    </g>
   </g>
   <g id="line2d_33">
    <defs>
     <path id="m489387abd2" d="M 0 5 
C 1.326016 5 2.597899 4.473168 3.535534 3.535534 
C 4.473168 2.597899 5 1.326016 5 0 
C 5 -1.326016 4.473168 -2.597899 3.535534 -3.535534 
C 2.597899 -4.473168 1.326016 -5 0 -5 
C -1.326016 -5 -2.597899 -4.473168 -3.535534 -3.535534 
C -4.473168 -2.597899 -5 -1.326016 -5 0 
C -5 1.326016 -4.473168 2.597899 -3.535534 3.535534 
C -2.597899 4.473168 -1.326016 5 0 5 
z
" style="stroke: #2ca02c; stroke-width: 2"/>
    </defs>
    <g clip-path="url(#p9d9426c835)">
     <use xlink:href="#m489387abd2" x="378.019412" y="191.026425" style="fill: #ffffff; stroke: #2ca02c; stroke-width: 2"/>
     <use xlink:href="#m489387abd2" x="419.048824" y="105.047625" style="fill: #ffffff; stroke: #2ca02c; stroke-width: 2"/>
     <use xlink:href="#m489387abd2" x="460.078235" y="101.610525" style="fill: #ffffff; stroke: #2ca02c; stroke-width: 2"/>
    </g>
   </g>
   <g id="line2d_34">
    <defs>
     <path id="m64d0a60a59" d="M 0 5 
C 1.326016 5 2.597899 4.473168 3.535534 3.535534 
C 4.473168 2.597899 5 1.326016 5 0 
C 5 -1.326016 4.473168 -2.597899 3.535534 -3.535534 
C 2.597899 -4.473168 1.326016 -5 0 -5 
C -1.326016 -5 -2.597899 -4.473168 -3.535534 -3.535534 
C -4.473168 -2.597899 -5 -1.326016 -5 0 
C -5 1.326016 -4.473168 2.597899 -3.535534 3.535534 
C -2.597899 4.473168 -1.326016 5 0 5 
z
" style="stroke: #d62728; stroke-width: 2"/>
    </defs>
    <g clip-path="url(#p9d9426c835)">
     <use xlink:href="#m64d0a60a59" x="501.107647" y="194.566125" style="fill: #ffffff; stroke: #d62728; stroke-width: 2"/>
     <use xlink:href="#m64d0a60a59" x="542.137059" y="105.047625" style="fill: #ffffff; stroke: #d62728; stroke-width: 2"/>
     <use xlink:href="#m64d0a60a59" x="583.166471" y="115.615425" style="fill: #ffffff; stroke: #d62728; stroke-width: 2"/>
    </g>
   </g>
   <g id="text_20">
    <g id="patch_11">
     <path d="M 118.781085 24.355937 
L 185.93421 24.355937 
Q 191.13421 24.355937 191.13421 19.155937 
L 191.13421 7.285312 
Q 191.13421 2.085312 185.93421 2.085312 
L 118.781085 2.085312 
Q 113.581085 2.085312 113.581085 7.285312 
L 113.581085 19.155937 
Q 113.581085 24.355937 118.781085 24.355937 
z
" style="fill: #f0f0f0; stroke: #000000; stroke-linejoin: miter"/>
    </g>
    <text style="font-weight: 700; font-size: 13px; font-family: 'Arial'; text-anchor: middle" x="152.357647" y="16.590469" transform="rotate(-0 152.357647 16.590469)">Population</text>
   </g>
   <g id="text_21">
    <g id="patch_12">
     <path d="M 272.488479 24.355937 
L 319.432698 24.355937 
Q 324.632698 24.355937 324.632698 19.155937 
L 324.632698 7.285312 
Q 324.632698 2.085312 319.432698 2.085312 
L 272.488479 2.085312 
Q 267.288479 2.085312 267.288479 7.285312 
L 267.288479 19.155937 
Q 267.288479 24.355937 272.488479 24.355937 
z
" style="fill: #f0f0f0; stroke: #000000; stroke-linejoin: miter"/>
    </g>
    <text style="font-weight: 700; font-size: 13px; font-family: 'Arial'; text-anchor: middle" x="295.960588" y="16.590469" transform="rotate(-0 295.960588 16.590469)">Meta-Lr</text>
   </g>
   <g id="text_22">
    <g id="patch_13">
     <path d="M 375.710074 24.44125 
L 462.387574 24.44125 
Q 467.587574 24.44125 467.587574 19.24125 
L 467.587574 7.2 
Q 467.587574 2 462.387574 2 
L 375.710074 2 
Q 370.510074 2 370.510074 7.2 
L 370.510074 19.24125 
Q 370.510074 24.44125 375.710074 24.44125 
z
" style="fill: #f0f0f0; stroke: #000000; stroke-linejoin: miter"/>
    </g>
    <text style="font-weight: 700; font-size: 13px; font-family: 'Arial'; text-anchor: middle" x="419.048824" y="16.505156" transform="rotate(-0 419.048824 16.505156)">Learning Rate</text>
   </g>
   <g id="text_23">
    <g id="patch_14">
     <path d="M 507.352918 24.355937 
L 576.921199 24.355937 
Q 582.121199 24.355937 582.121199 19.155937 
L 582.121199 7.285312 
Q 582.121199 2.085312 576.921199 2.085312 
L 507.352918 2.085312 
Q 502.152918 2.085312 502.152918 7.285312 
L 502.152918 19.155937 
Q 502.152918 24.355937 507.352918 24.355937 
z
" style="fill: #f0f0f0; stroke: #000000; stroke-linejoin: miter"/>
    </g>
    <text style="font-weight: 700; font-size: 13px; font-family: 'Arial'; text-anchor: middle" x="542.137059" y="16.590469" transform="rotate(-0 542.137059 16.590469)">LoRA Rank</text>
   </g>
   <g id="line2d_35">
    <path d="M 131.842941 73.241625 
" clip-path="url(#p9d9426c835)" style="fill: none; stroke: #ff7f0e; stroke-width: 1.5; stroke-linecap: square"/>
    <defs>
     <path id="m5591d37e24" d="M 0 8 
C 2.121625 8 4.156639 7.15707 5.656854 5.656854 
C 7.15707 4.156639 8 2.121625 8 0 
C 8 -2.121625 7.15707 -4.156639 5.656854 -5.656854 
C 4.156639 -7.15707 2.121625 -8 0 -8 
C -2.121625 -8 -4.156639 -7.15707 -5.656854 -5.656854 
C -7.15707 -4.156639 -8 -2.121625 -8 0 
C -8 2.121625 -7.15707 4.156639 -5.656854 5.656854 
C -4.156639 7.15707 -2.121625 8 0 8 
z
" style="stroke: #000000; stroke-width: 2.5"/>
    </defs>
    <g clip-path="url(#p9d9426c835)">
     <use xlink:href="#m5591d37e24" x="131.842941" y="73.241625" style="fill: #1f77b4; stroke: #000000; stroke-width: 2.5"/>
    </g>
   </g>
   <g id="line2d_36">
    <path d="M 336.99 105.047625 
" clip-path="url(#p9d9426c835)" style="fill: none; stroke: #d62728; stroke-width: 1.5; stroke-linecap: square"/>
    <defs>
     <path id="m66fd01bcb4" d="M 0 8 
C 2.121625 8 4.156639 7.15707 5.656854 5.656854 
C 7.15707 4.156639 8 2.121625 8 0 
C 8 -2.121625 7.15707 -4.156639 5.656854 -5.656854 
C 4.156639 -7.15707 2.121625 -8 0 -8 
C -2.121625 -8 -4.156639 -7.15707 -5.656854 -5.656854 
C -7.15707 -4.156639 -8 -2.121625 -8 0 
C -8 2.121625 -7.15707 4.156639 -5.656854 5.656854 
C -4.156639 7.15707 -2.121625 8 0 8 
z
" style="stroke: #000000; stroke-width: 2.5"/>
    </defs>
    <g clip-path="url(#p9d9426c835)">
     <use xlink:href="#m66fd01bcb4" x="336.99" y="105.047625" style="fill: #ff7f0e; stroke: #000000; stroke-width: 2.5"/>
    </g>
   </g>
   <g id="line2d_37">
    <path d="M 419.048824 105.047625 
" clip-path="url(#p9d9426c835)" style="fill: none; stroke: #8c564b; stroke-width: 1.5; stroke-linecap: square"/>
    <defs>
     <path id="m5bf48728e3" d="M 0 8 
C 2.121625 8 4.156639 7.15707 5.656854 5.656854 
C 7.15707 4.156639 8 2.121625 8 0 
C 8 -2.121625 7.15707 -4.156639 5.656854 -5.656854 
C 4.156639 -7.15707 2.121625 -8 0 -8 
C -2.121625 -8 -4.156639 -7.15707 -5.656854 -5.656854 
C -7.15707 -4.156639 -8 -2.121625 -8 0 
C -8 2.121625 -7.15707 4.156639 -5.656854 5.656854 
C -4.156639 7.15707 -2.121625 8 0 8 
z
" style="stroke: #000000; stroke-width: 2.5"/>
    </defs>
    <g clip-path="url(#p9d9426c835)">
     <use xlink:href="#m5bf48728e3" x="419.048824" y="105.047625" style="fill: #2ca02c; stroke: #000000; stroke-width: 2.5"/>
    </g>
   </g>
   <g id="line2d_38">
    <path d="M 542.137059 105.047625 
" clip-path="url(#p9d9426c835)" style="fill: none; stroke: #7f7f7f; stroke-width: 1.5; stroke-linecap: square"/>
    <defs>
     <path id="m6a84ba32ce" d="M 0 8 
C 2.121625 8 4.156639 7.15707 5.656854 5.656854 
C 7.15707 4.156639 8 2.121625 8 0 
C 8 -2.121625 7.15707 -4.156639 5.656854 -5.656854 
C 4.156639 -7.15707 2.121625 -8 0 -8 
C -2.121625 -8 -4.156639 -7.15707 -5.656854 -5.656854 
C -7.15707 -4.156639 -8 -2.121625 -8 0 
C -8 2.121625 -7.15707 4.156639 -5.656854 5.656854 
C -4.156639 7.15707 -2.121625 8 0 8 
z
" style="stroke: #000000; stroke-width: 2.5"/>
    </defs>
    <g clip-path="url(#p9d9426c835)">
     <use xlink:href="#m6a84ba32ce" x="542.137059" y="105.047625" style="fill: #d62728; stroke: #000000; stroke-width: 2.5"/>
    </g>
   </g>
  </g>
 </g>
 <defs>
  <clipPath id="p9d9426c835">
   <rect x="57.99" y="28.610625" width="558" height="205.2"/>
  </clipPath>
 </defs>
</svg>
