<?xml version="1.0" encoding="utf-8" standalone="no"?>
<!DOCTYPE svg PUBLIC "-//W3C//DTD SVG 1.1//EN"
  "http://www.w3.org/Graphics/SVG/1.1/DTD/svg11.dtd">
<svg xmlns:xlink="http://www.w3.org/1999/xlink" width="1127.1475pt" height="550.777939pt" viewBox="0 0 1127.1475 550.777939" xmlns="http://www.w3.org/2000/svg" version="1.1">
 <metadata>
  <rdf:RDF xmlns:dc="http://purl.org/dc/elements/1.1/" xmlns:cc="http://creativecommons.org/ns#" xmlns:rdf="http://www.w3.org/1999/02/22-rdf-syntax-ns#">
   <cc:Work>
    <dc:type rdf:resource="http://purl.org/dc/dcmitype/StillImage"/>
    <dc:date>2025-12-26T21:47:57.990389</dc:date>
    <dc:format>image/svg+xml</dc:format>
    <dc:creator>
     <cc:Agent>
      <dc:title>Matplotlib v3.10.0, https://matplotlib.org/</dc:title>
     </cc:Agent>
    </dc:creator>
   </cc:Work>
  </rdf:RDF>
 </metadata>
 <defs>
  <style type="text/css">*{stroke-linejoin: round; stroke-linecap: butt}</style>
 </defs>
 <g id="figure_1">
  <g id="patch_1">
   <path d="M 0 550.777939 
L 1127.1475 550.777939 
L 1127.1475 0 
L 0 0 
z
" style="fill: #ffffff"/>
  </g>
  <g id="axes_1">
   <g id="patch_2">
    <path d="M 86.8475 354.922721 
L 1119.9475 354.922721 
L 1119.9475 15.073594 
L 86.8475 15.073594 
z
" style="fill: #ffffff"/>
   </g>
   <g id="line2d_1">
    <path d="M 315.892862 354.922721 
L 315.892862 15.073594 
" clip-path="url(#pd10e18a6a1)" style="fill: none; stroke-dasharray: 5.55,2.4; stroke-dashoffset: 0; stroke: #a0a0a0; stroke-opacity: 0.8; stroke-width: 1.5"/>
   </g>
   <g id="line2d_2">
    <path d="M 507.562621 354.922721 
L 507.562621 15.073594 
" clip-path="url(#pd10e18a6a1)" style="fill: none; stroke-dasharray: 5.55,2.4; stroke-dashoffset: 0; stroke: #a0a0a0; stroke-opacity: 0.8; stroke-width: 1.5"/>
   </g>
   <g id="line2d_3">
    <path d="M 699.232379 354.922721 
L 699.232379 15.073594 
" clip-path="url(#pd10e18a6a1)" style="fill: none; stroke-dasharray: 5.55,2.4; stroke-dashoffset: 0; stroke: #a0a0a0; stroke-opacity: 0.8; stroke-width: 1.5"/>
   </g>
   <g id="line2d_4">
    <path d="M 890.902138 354.922721 
L 890.902138 15.073594 
" clip-path="url(#pd10e18a6a1)" style="fill: none; stroke-dasharray: 5.55,2.4; stroke-dashoffset: 0; stroke: #a0a0a0; stroke-opacity: 0.8; stroke-width: 1.5"/>
   </g>
   <g id="matplotlib.axis_1">
    <g id="xtick_1">
     <g id="line2d_5">
      <defs>
       <path id="m9639aa523f" d="M 0 0 
L 0 8 
" style="stroke: #000000; stroke-width: 2.5"/>
      </defs>
      <g>
       <use xlink:href="#m9639aa523f" x="156.168063" y="354.922721" style="stroke: #000000; stroke-width: 2.5"/>
      </g>
     </g>
     <g id="text_1">
      <text style="font-size: 22px; font-family: 'Arial'; text-anchor: end" x="167.492599" y="377.747257" transform="rotate(-45 167.492599 377.747257)">Boundary Sense</text>
     </g>
    </g>
    <g id="xtick_2">
     <g id="line2d_6">
      <g>
       <use xlink:href="#m9639aa523f" x="220.057982" y="354.922721" style="stroke: #000000; stroke-width: 2.5"/>
      </g>
     </g>
     <g id="text_2">
      <text style="font-size: 22px; font-family: 'Arial'; text-anchor: end" x="231.192925" y="377.557664" transform="rotate(-45 231.192925 377.557664)">Self-Awareness</text>
     </g>
    </g>
    <g id="xtick_3">
     <g id="line2d_7">
      <g>
       <use xlink:href="#m9639aa523f" x="283.947902" y="354.922721" style="stroke: #000000; stroke-width: 2.5"/>
      </g>
     </g>
     <g id="text_3">
      <text style="font-size: 22px; font-family: 'Arial'; text-anchor: end" x="295.272438" y="377.747257" transform="rotate(-45 295.272438 377.747257)">Subjectivity</text>
     </g>
    </g>
    <g id="xtick_4">
     <g id="line2d_8">
      <g>
       <use xlink:href="#m9639aa523f" x="347.837822" y="354.922721" style="stroke: #000000; stroke-width: 2.5"/>
      </g>
     </g>
     <g id="text_4">
      <text style="font-size: 22px; font-family: 'Arial'; text-anchor: end" x="358.972765" y="377.557664" transform="rotate(-45 358.972765 377.557664)">Multimodal Integration</text>
     </g>
    </g>
    <g id="xtick_5">
     <g id="line2d_9">
      <g>
       <use xlink:href="#m9639aa523f" x="411.727741" y="354.922721" style="stroke: #000000; stroke-width: 2.5"/>
      </g>
     </g>
     <g id="text_5">
      <text style="font-size: 22px; font-family: 'Arial'; text-anchor: end" x="422.862684" y="377.557664" transform="rotate(-45 422.862684 377.557664)">World Model</text>
     </g>
    </g>
    <g id="xtick_6">
     <g id="line2d_10">
      <g>
       <use xlink:href="#m9639aa523f" x="475.617661" y="354.922721" style="stroke: #000000; stroke-width: 2.5"/>
      </g>
     </g>
     <g id="text_6">
      <text style="font-size: 22px; font-family: 'Arial'; text-anchor: end" x="486.752604" y="377.557664" transform="rotate(-45 486.752604 377.557664)">Embodiment</text>
     </g>
    </g>
    <g id="xtick_7">
     <g id="line2d_11">
      <g>
       <use xlink:href="#m9639aa523f" x="539.50758" y="354.922721" style="stroke: #000000; stroke-width: 2.5"/>
      </g>
     </g>
     <g id="text_7">
      <text style="font-size: 22px; font-family: 'Arial'; text-anchor: end" x="550.642523" y="377.557664" transform="rotate(-45 550.642523 377.557664)">Recursive Reflection</text>
     </g>
    </g>
    <g id="xtick_8">
     <g id="line2d_12">
      <g>
       <use xlink:href="#m9639aa523f" x="603.3975" y="354.922721" style="stroke: #000000; stroke-width: 2.5"/>
      </g>
     </g>
     <g id="text_8">
      <text style="font-size: 22px; font-family: 'Arial'; text-anchor: end" x="614.532443" y="377.557664" transform="rotate(-45 614.532443 377.557664)">Metacognition</text>
     </g>
    </g>
    <g id="xtick_9">
     <g id="line2d_13">
      <g>
       <use xlink:href="#m9639aa523f" x="667.28742" y="354.922721" style="stroke: #000000; stroke-width: 2.5"/>
      </g>
     </g>
     <g id="text_9">
      <text style="font-size: 22px; font-family: 'Arial'; text-anchor: end" x="678.422363" y="377.557664" transform="rotate(-45 678.422363 377.557664)">Error Correction</text>
     </g>
    </g>
    <g id="xtick_10">
     <g id="line2d_14">
      <g>
       <use xlink:href="#m9639aa523f" x="731.177339" y="354.922721" style="stroke: #000000; stroke-width: 2.5"/>
      </g>
     </g>
     <g id="text_10">
      <text style="font-size: 22px; font-family: 'Arial'; text-anchor: end" x="742.511598" y="377.756979" transform="rotate(-45 742.511598 377.756979)">Mirroring Others</text>
     </g>
    </g>
    <g id="xtick_11">
     <g id="line2d_15">
      <g>
       <use xlink:href="#m9639aa523f" x="795.067259" y="354.922721" style="stroke: #000000; stroke-width: 2.5"/>
      </g>
     </g>
     <g id="text_11">
      <text style="font-size: 22px; font-family: 'Arial'; text-anchor: end" x="806.202202" y="377.557664" transform="rotate(-45 806.202202 377.557664)">Role Understanding</text>
     </g>
    </g>
    <g id="xtick_12">
     <g id="line2d_16">
      <g>
       <use xlink:href="#m9639aa523f" x="858.957178" y="354.922721" style="stroke: #000000; stroke-width: 2.5"/>
      </g>
     </g>
     <g id="text_12">
      <text style="font-size: 22px; font-family: 'Arial'; text-anchor: end" x="870.281714" y="377.747257" transform="rotate(-45 870.281714 377.747257)">Interactional Synchrony</text>
     </g>
    </g>
    <g id="xtick_13">
     <g id="line2d_17">
      <g>
       <use xlink:href="#m9639aa523f" x="922.847098" y="354.922721" style="stroke: #000000; stroke-width: 2.5"/>
      </g>
     </g>
     <g id="text_13">
      <text style="font-size: 22px; font-family: 'Arial'; text-anchor: end" x="933.982041" y="377.557664" transform="rotate(-45 933.982041 377.557664)">Time Perception</text>
     </g>
    </g>
    <g id="xtick_14">
     <g id="line2d_18">
      <g>
       <use xlink:href="#m9639aa523f" x="986.737018" y="354.922721" style="stroke: #000000; stroke-width: 2.5"/>
      </g>
     </g>
     <g id="text_14">
      <text style="font-size: 22px; font-family: 'Arial'; text-anchor: end" x="998.061554" y="377.747257" transform="rotate(-45 998.061554 377.747257)">Desire &amp; Purpose</text>
     </g>
    </g>
    <g id="xtick_15">
     <g id="line2d_19">
      <g>
       <use xlink:href="#m9639aa523f" x="1050.626937" y="354.922721" style="stroke: #000000; stroke-width: 2.5"/>
      </g>
     </g>
     <g id="text_15">
      <text style="font-size: 22px; font-family: 'Arial'; text-anchor: end" x="1061.951473" y="377.747257" transform="rotate(-45 1061.951473 377.747257)">Core Personality</text>
     </g>
    </g>
   </g>
   <g id="matplotlib.axis_2">
    <g id="ytick_1">
     <g id="line2d_20">
      <path d="M 86.8475 354.922721 
L 1119.9475 354.922721 
" clip-path="url(#pd10e18a6a1)" style="fill: none; stroke: #d3d3d3; stroke-opacity: 0.6; stroke-width: 0.8; stroke-linecap: square"/>
     </g>
     <g id="line2d_21">
      <defs>
       <path id="m245bc5c7e9" d="M 0 0 
L -8 0 
" style="stroke: #000000; stroke-width: 2.5"/>
      </defs>
      <g>
       <use xlink:href="#m245bc5c7e9" x="86.8475" y="354.922721" style="stroke: #000000; stroke-width: 2.5"/>
      </g>
     </g>
     <g id="text_16">
      <text style="font-size: 22px; font-family: 'Arial'; text-anchor: end" x="75.3475" y="362.796314" transform="rotate(-0 75.3475 362.796314)">0.0</text>
     </g>
    </g>
    <g id="ytick_2">
     <g id="line2d_22">
      <path d="M 86.8475 241.639678 
L 1119.9475 241.639678 
" clip-path="url(#pd10e18a6a1)" style="fill: none; stroke: #d3d3d3; stroke-opacity: 0.6; stroke-width: 0.8; stroke-linecap: square"/>
     </g>
     <g id="line2d_23">
      <g>
       <use xlink:href="#m245bc5c7e9" x="86.8475" y="241.639678" style="stroke: #000000; stroke-width: 2.5"/>
      </g>
     </g>
     <g id="text_17">
      <text style="font-size: 22px; font-family: 'Arial'; text-anchor: end" x="75.3475" y="249.513272" transform="rotate(-0 75.3475 249.513272)">0.1</text>
     </g>
    </g>
    <g id="ytick_3">
     <g id="line2d_24">
      <path d="M 86.8475 128.356636 
L 1119.9475 128.356636 
" clip-path="url(#pd10e18a6a1)" style="fill: none; stroke: #d3d3d3; stroke-opacity: 0.6; stroke-width: 0.8; stroke-linecap: square"/>
     </g>
     <g id="line2d_25">
      <g>
       <use xlink:href="#m245bc5c7e9" x="86.8475" y="128.356636" style="stroke: #000000; stroke-width: 2.5"/>
      </g>
     </g>
     <g id="text_18">
      <text style="font-size: 22px; font-family: 'Arial'; text-anchor: end" x="75.3475" y="136.23023" transform="rotate(-0 75.3475 136.23023)">0.2</text>
     </g>
    </g>
    <g id="ytick_4">
     <g id="line2d_26">
      <path d="M 86.8475 15.073594 
L 1119.9475 15.073594 
" clip-path="url(#pd10e18a6a1)" style="fill: none; stroke: #d3d3d3; stroke-opacity: 0.6; stroke-width: 0.8; stroke-linecap: square"/>
     </g>
     <g id="line2d_27">
      <g>
       <use xlink:href="#m245bc5c7e9" x="86.8475" y="15.073594" style="stroke: #000000; stroke-width: 2.5"/>
      </g>
     </g>
     <g id="text_19">
      <text style="font-size: 22px; font-family: 'Arial'; text-anchor: end" x="75.3475" y="22.947188" transform="rotate(-0 75.3475 22.947188)">0.3</text>
     </g>
    </g>
    <g id="text_20">
     <text style="font-weight: 700; font-size: 28px; font-family: 'Arial'; text-anchor: middle" x="27.241875" y="184.998157" transform="rotate(-90 27.241875 184.998157)">5D3S-QSA Score</text>
    </g>
   </g>
   <g id="patch_3">
    <path d="M 86.8475 354.922721 
L 86.8475 15.073594 
" style="fill: none; stroke: #000000; stroke-width: 2.5; stroke-linejoin: miter; stroke-linecap: square"/>
   </g>
   <g id="patch_4">
    <path d="M 86.8475 354.922721 
L 1119.9475 354.922721 
" style="fill: none; stroke: #000000; stroke-width: 2.5; stroke-linejoin: miter; stroke-linecap: square"/>
   </g>
   <g id="patch_5">
    <path d="M 133.806591 354.922721 
L 156.168063 354.922721 
L 156.168063 294.949345 
L 133.806591 294.949345 
z
" clip-path="url(#pd10e18a6a1)" style="fill: #a23b72"/>
   </g>
   <g id="patch_6">
    <path d="M 197.696511 354.922721 
L 220.057982 354.922721 
L 220.057982 324.225393 
L 197.696511 324.225393 
z
" clip-path="url(#pd10e18a6a1)" style="fill: #a23b72"/>
   </g>
   <g id="patch_7">
    <path d="M 261.58643 354.922721 
L 283.947902 354.922721 
L 283.947902 327.324019 
L 261.58643 327.324019 
z
" clip-path="url(#pd10e18a6a1)" style="fill: #a23b72"/>
   </g>
   <g id="patch_8">
    <path d="M 325.47635 354.922721 
L 347.837822 354.922721 
L 347.837822 306.742174 
L 325.47635 306.742174 
z
" clip-path="url(#pd10e18a6a1)" style="fill: #a23b72"/>
   </g>
   <g id="patch_9">
    <path d="M 389.366269 354.922721 
L 411.727741 354.922721 
L 411.727741 323.183937 
L 389.366269 323.183937 
z
" clip-path="url(#pd10e18a6a1)" style="fill: #a23b72"/>
   </g>
   <g id="patch_10">
    <path d="M 453.256189 354.922721 
L 475.617661 354.922721 
L 475.617661 320.701802 
L 453.256189 320.701802 
z
" clip-path="url(#pd10e18a6a1)" style="fill: #a23b72"/>
   </g>
   <g id="patch_11">
    <path d="M 517.146109 354.922721 
L 539.50758 354.922721 
L 539.50758 287.720916 
L 517.146109 287.720916 
z
" clip-path="url(#pd10e18a6a1)" style="fill: #a23b72"/>
   </g>
   <g id="patch_12">
    <path d="M 581.036028 354.922721 
L 603.3975 354.922721 
L 603.3975 278.238815 
L 581.036028 278.238815 
z
" clip-path="url(#pd10e18a6a1)" style="fill: #a23b72"/>
   </g>
   <g id="patch_13">
    <path d="M 644.925948 354.922721 
L 667.28742 354.922721 
L 667.28742 252.475448 
L 644.925948 252.475448 
z
" clip-path="url(#pd10e18a6a1)" style="fill: #a23b72"/>
   </g>
   <g id="patch_14">
    <path d="M 708.815867 354.922721 
L 731.177339 354.922721 
L 731.177339 264.788822 
L 708.815867 264.788822 
z
" clip-path="url(#pd10e18a6a1)" style="fill: #a23b72"/>
   </g>
   <g id="patch_15">
    <path d="M 772.705787 354.922721 
L 795.067259 354.922721 
L 795.067259 313.057248 
L 772.705787 313.057248 
z
" clip-path="url(#pd10e18a6a1)" style="fill: #a23b72"/>
   </g>
   <g id="patch_16">
    <path d="M 836.595707 354.922721 
L 858.957178 354.922721 
L 858.957178 295.219496 
L 836.595707 295.219496 
z
" clip-path="url(#pd10e18a6a1)" style="fill: #a23b72"/>
   </g>
   <g id="patch_17">
    <path d="M 900.485626 354.922721 
L 922.847098 354.922721 
L 922.847098 240.747686 
L 900.485626 240.747686 
z
" clip-path="url(#pd10e18a6a1)" style="fill: #a23b72"/>
   </g>
   <g id="patch_18">
    <path d="M 964.375546 354.922721 
L 986.737018 354.922721 
L 986.737018 308.250107 
L 964.375546 308.250107 
z
" clip-path="url(#pd10e18a6a1)" style="fill: #a23b72"/>
   </g>
   <g id="patch_19">
    <path d="M 1028.265465 354.922721 
L 1050.626937 354.922721 
L 1050.626937 289.421073 
L 1028.265465 289.421073 
z
" clip-path="url(#pd10e18a6a1)" style="fill: #a23b72"/>
   </g>
   <g id="patch_20">
    <path d="M 156.168063 354.922721 
L 178.529535 354.922721 
L 178.529535 236.086588 
L 156.168063 236.086588 
z
" clip-path="url(#pd10e18a6a1)" style="fill: #2e86ab"/>
   </g>
   <g id="patch_21">
    <path d="M 220.057982 354.922721 
L 242.419454 354.922721 
L 242.419454 264.81121 
L 220.057982 264.81121 
z
" clip-path="url(#pd10e18a6a1)" style="fill: #2e86ab"/>
   </g>
   <g id="patch_22">
    <path d="M 283.947902 354.922721 
L 306.309374 354.922721 
L 306.309374 264.264195 
L 283.947902 264.264195 
z
" clip-path="url(#pd10e18a6a1)" style="fill: #2e86ab"/>
   </g>
   <g id="patch_23">
    <path d="M 347.837822 354.922721 
L 370.199293 354.922721 
L 370.199293 257.856545 
L 347.837822 257.856545 
z
" clip-path="url(#pd10e18a6a1)" style="fill: #2e86ab"/>
   </g>
   <g id="patch_24">
    <path d="M 411.727741 354.922721 
L 434.089213 354.922721 
L 434.089213 287.538842 
L 411.727741 287.538842 
z
" clip-path="url(#pd10e18a6a1)" style="fill: #2e86ab"/>
   </g>
   <g id="patch_25">
    <path d="M 475.617661 354.922721 
L 497.979133 354.922721 
L 497.979133 278.92868 
L 475.617661 278.92868 
z
" clip-path="url(#pd10e18a6a1)" style="fill: #2e86ab"/>
   </g>
   <g id="patch_26">
    <path d="M 539.50758 354.922721 
L 561.869052 354.922721 
L 561.869052 246.91982 
L 539.50758 246.91982 
z
" clip-path="url(#pd10e18a6a1)" style="fill: #2e86ab"/>
   </g>
   <g id="patch_27">
    <path d="M 603.3975 354.922721 
L 625.758972 354.922721 
L 625.758972 241.349209 
L 603.3975 241.349209 
z
" clip-path="url(#pd10e18a6a1)" style="fill: #2e86ab"/>
   </g>
   <g id="patch_28">
    <path d="M 667.28742 354.922721 
L 689.648891 354.922721 
L 689.648891 205.684626 
L 667.28742 205.684626 
z
" clip-path="url(#pd10e18a6a1)" style="fill: #2e86ab"/>
   </g>
   <g id="patch_29">
    <path d="M 731.177339 354.922721 
L 753.538811 354.922721 
L 753.538811 231.050177 
L 731.177339 231.050177 
z
" clip-path="url(#pd10e18a6a1)" style="fill: #2e86ab"/>
   </g>
   <g id="patch_30">
    <path d="M 795.067259 354.922721 
L 817.428731 354.922721 
L 817.428731 261.516982 
L 795.067259 261.516982 
z
" clip-path="url(#pd10e18a6a1)" style="fill: #2e86ab"/>
   </g>
   <g id="patch_31">
    <path d="M 858.957178 354.922721 
L 881.31865 354.922721 
L 881.31865 246.844575 
L 858.957178 246.844575 
z
" clip-path="url(#pd10e18a6a1)" style="fill: #2e86ab"/>
   </g>
   <g id="patch_32">
    <path d="M 922.847098 354.922721 
L 945.20857 354.922721 
L 945.20857 257.695543 
L 922.847098 257.695543 
z
" clip-path="url(#pd10e18a6a1)" style="fill: #2e86ab"/>
   </g>
   <g id="patch_33">
    <path d="M 986.737018 354.922721 
L 1009.098489 354.922721 
L 1009.098489 271.546401 
L 986.737018 271.546401 
z
" clip-path="url(#pd10e18a6a1)" style="fill: #2e86ab"/>
   </g>
   <g id="patch_34">
    <path d="M 1050.626937 354.922721 
L 1072.988409 354.922721 
L 1072.988409 271.384388 
L 1050.626937 271.384388 
z
" clip-path="url(#pd10e18a6a1)" style="fill: #2e86ab"/>
   </g>
   <g id="LineCollection_1">
    <path d="M 144.987327 296.470122 
L 144.987327 293.428569 
" clip-path="url(#pd10e18a6a1)" style="fill: none; stroke: #000000; stroke-width: 1.5"/>
    <path d="M 208.877246 325.625798 
L 208.877246 322.824987 
" clip-path="url(#pd10e18a6a1)" style="fill: none; stroke: #000000; stroke-width: 1.5"/>
    <path d="M 272.767166 328.041607 
L 272.767166 326.606431 
" clip-path="url(#pd10e18a6a1)" style="fill: none; stroke: #000000; stroke-width: 1.5"/>
    <path d="M 336.657086 306.742174 
L 336.657086 306.742174 
" clip-path="url(#pd10e18a6a1)" style="fill: none; stroke: #000000; stroke-width: 1.5"/>
    <path d="M 400.547005 323.183937 
L 400.547005 323.183937 
" clip-path="url(#pd10e18a6a1)" style="fill: none; stroke: #000000; stroke-width: 1.5"/>
    <path d="M 464.436925 321.881833 
L 464.436925 319.52177 
" clip-path="url(#pd10e18a6a1)" style="fill: none; stroke: #000000; stroke-width: 1.5"/>
    <path d="M 528.326844 290.12098 
L 528.326844 285.320851 
" clip-path="url(#pd10e18a6a1)" style="fill: none; stroke: #000000; stroke-width: 1.5"/>
    <path d="M 592.216764 280.132443 
L 592.216764 276.345187 
" clip-path="url(#pd10e18a6a1)" style="fill: none; stroke: #000000; stroke-width: 1.5"/>
    <path d="M 656.106684 254.678131 
L 656.106684 250.272764 
" clip-path="url(#pd10e18a6a1)" style="fill: none; stroke: #000000; stroke-width: 1.5"/>
    <path d="M 719.996603 265.819033 
L 719.996603 263.758611 
" clip-path="url(#pd10e18a6a1)" style="fill: none; stroke: #000000; stroke-width: 1.5"/>
    <path d="M 783.886523 313.538985 
L 783.886523 312.575512 
" clip-path="url(#pd10e18a6a1)" style="fill: none; stroke: #000000; stroke-width: 1.5"/>
    <path d="M 847.776442 298.281199 
L 847.776442 292.157792 
" clip-path="url(#pd10e18a6a1)" style="fill: none; stroke: #000000; stroke-width: 1.5"/>
    <path d="M 911.666362 251.603824 
L 911.666362 229.891548 
" clip-path="url(#pd10e18a6a1)" style="fill: none; stroke: #000000; stroke-width: 1.5"/>
    <path d="M 975.556282 309.491061 
L 975.556282 307.009154 
" clip-path="url(#pd10e18a6a1)" style="fill: none; stroke: #000000; stroke-width: 1.5"/>
    <path d="M 1039.446201 290.836205 
L 1039.446201 288.005941 
" clip-path="url(#pd10e18a6a1)" style="fill: none; stroke: #000000; stroke-width: 1.5"/>
   </g>
   <g id="line2d_28">
    <defs>
     <path id="m08645b2cb1" d="M 4 0 
L -4 -0 
" style="stroke: #000000"/>
    </defs>
    <g clip-path="url(#pd10e18a6a1)">
     <use xlink:href="#m08645b2cb1" x="144.987327" y="296.470122" style="stroke: #000000"/>
     <use xlink:href="#m08645b2cb1" x="208.877246" y="325.625798" style="stroke: #000000"/>
     <use xlink:href="#m08645b2cb1" x="272.767166" y="328.041607" style="stroke: #000000"/>
     <use xlink:href="#m08645b2cb1" x="336.657086" y="306.742174" style="stroke: #000000"/>
     <use xlink:href="#m08645b2cb1" x="400.547005" y="323.183937" style="stroke: #000000"/>
     <use xlink:href="#m08645b2cb1" x="464.436925" y="321.881833" style="stroke: #000000"/>
     <use xlink:href="#m08645b2cb1" x="528.326844" y="290.12098" style="stroke: #000000"/>
     <use xlink:href="#m08645b2cb1" x="592.216764" y="280.132443" style="stroke: #000000"/>
     <use xlink:href="#m08645b2cb1" x="656.106684" y="254.678131" style="stroke: #000000"/>
     <use xlink:href="#m08645b2cb1" x="719.996603" y="265.819033" style="stroke: #000000"/>
     <use xlink:href="#m08645b2cb1" x="783.886523" y="313.538985" style="stroke: #000000"/>
     <use xlink:href="#m08645b2cb1" x="847.776442" y="298.281199" style="stroke: #000000"/>
     <use xlink:href="#m08645b2cb1" x="911.666362" y="251.603824" style="stroke: #000000"/>
     <use xlink:href="#m08645b2cb1" x="975.556282" y="309.491061" style="stroke: #000000"/>
     <use xlink:href="#m08645b2cb1" x="1039.446201" y="290.836205" style="stroke: #000000"/>
    </g>
   </g>
   <g id="line2d_29">
    <g clip-path="url(#pd10e18a6a1)">
     <use xlink:href="#m08645b2cb1" x="144.987327" y="293.428569" style="stroke: #000000"/>
     <use xlink:href="#m08645b2cb1" x="208.877246" y="322.824987" style="stroke: #000000"/>
     <use xlink:href="#m08645b2cb1" x="272.767166" y="326.606431" style="stroke: #000000"/>
     <use xlink:href="#m08645b2cb1" x="336.657086" y="306.742174" style="stroke: #000000"/>
     <use xlink:href="#m08645b2cb1" x="400.547005" y="323.183937" style="stroke: #000000"/>
     <use xlink:href="#m08645b2cb1" x="464.436925" y="319.52177" style="stroke: #000000"/>
     <use xlink:href="#m08645b2cb1" x="528.326844" y="285.320851" style="stroke: #000000"/>
     <use xlink:href="#m08645b2cb1" x="592.216764" y="276.345187" style="stroke: #000000"/>
     <use xlink:href="#m08645b2cb1" x="656.106684" y="250.272764" style="stroke: #000000"/>
     <use xlink:href="#m08645b2cb1" x="719.996603" y="263.758611" style="stroke: #000000"/>
     <use xlink:href="#m08645b2cb1" x="783.886523" y="312.575512" style="stroke: #000000"/>
     <use xlink:href="#m08645b2cb1" x="847.776442" y="292.157792" style="stroke: #000000"/>
     <use xlink:href="#m08645b2cb1" x="911.666362" y="229.891548" style="stroke: #000000"/>
     <use xlink:href="#m08645b2cb1" x="975.556282" y="307.009154" style="stroke: #000000"/>
     <use xlink:href="#m08645b2cb1" x="1039.446201" y="288.005941" style="stroke: #000000"/>
    </g>
   </g>
   <g id="LineCollection_2">
    <path d="M 167.348799 263.460563 
L 167.348799 208.712613 
" clip-path="url(#pd10e18a6a1)" style="fill: none; stroke: #000000; stroke-width: 1.5"/>
    <path d="M 231.238718 270.542617 
L 231.238718 259.079802 
" clip-path="url(#pd10e18a6a1)" style="fill: none; stroke: #000000; stroke-width: 1.5"/>
    <path d="M 295.128638 268.027259 
L 295.128638 260.501132 
" clip-path="url(#pd10e18a6a1)" style="fill: none; stroke: #000000; stroke-width: 1.5"/>
    <path d="M 359.018558 270.029268 
L 359.018558 245.683823 
" clip-path="url(#pd10e18a6a1)" style="fill: none; stroke: #000000; stroke-width: 1.5"/>
    <path d="M 422.908477 293.41862 
L 422.908477 281.659064 
" clip-path="url(#pd10e18a6a1)" style="fill: none; stroke: #000000; stroke-width: 1.5"/>
    <path d="M 486.798397 287.256059 
L 486.798397 270.601301 
" clip-path="url(#pd10e18a6a1)" style="fill: none; stroke: #000000; stroke-width: 1.5"/>
    <path d="M 550.688316 249.859287 
L 550.688316 243.980353 
" clip-path="url(#pd10e18a6a1)" style="fill: none; stroke: #000000; stroke-width: 1.5"/>
    <path d="M 614.578236 253.387052 
L 614.578236 229.311366 
" clip-path="url(#pd10e18a6a1)" style="fill: none; stroke: #000000; stroke-width: 1.5"/>
    <path d="M 678.468156 228.562332 
L 678.468156 182.80692 
" clip-path="url(#pd10e18a6a1)" style="fill: none; stroke: #000000; stroke-width: 1.5"/>
    <path d="M 742.358075 238.670554 
L 742.358075 223.429799 
" clip-path="url(#pd10e18a6a1)" style="fill: none; stroke: #000000; stroke-width: 1.5"/>
    <path d="M 806.247995 267.779558 
L 806.247995 255.254406 
" clip-path="url(#pd10e18a6a1)" style="fill: none; stroke: #000000; stroke-width: 1.5"/>
    <path d="M 870.137914 253.909751 
L 870.137914 239.779399 
" clip-path="url(#pd10e18a6a1)" style="fill: none; stroke: #000000; stroke-width: 1.5"/>
    <path d="M 934.027834 264.120056 
L 934.027834 251.271029 
" clip-path="url(#pd10e18a6a1)" style="fill: none; stroke: #000000; stroke-width: 1.5"/>
    <path d="M 997.917754 278.957572 
L 997.917754 264.135231 
" clip-path="url(#pd10e18a6a1)" style="fill: none; stroke: #000000; stroke-width: 1.5"/>
    <path d="M 1061.807673 281.226932 
L 1061.807673 261.541844 
" clip-path="url(#pd10e18a6a1)" style="fill: none; stroke: #000000; stroke-width: 1.5"/>
   </g>
   <g id="line2d_30">
    <g clip-path="url(#pd10e18a6a1)">
     <use xlink:href="#m08645b2cb1" x="167.348799" y="263.460563" style="stroke: #000000"/>
     <use xlink:href="#m08645b2cb1" x="231.238718" y="270.542617" style="stroke: #000000"/>
     <use xlink:href="#m08645b2cb1" x="295.128638" y="268.027259" style="stroke: #000000"/>
     <use xlink:href="#m08645b2cb1" x="359.018558" y="270.029268" style="stroke: #000000"/>
     <use xlink:href="#m08645b2cb1" x="422.908477" y="293.41862" style="stroke: #000000"/>
     <use xlink:href="#m08645b2cb1" x="486.798397" y="287.256059" style="stroke: #000000"/>
     <use xlink:href="#m08645b2cb1" x="550.688316" y="249.859287" style="stroke: #000000"/>
     <use xlink:href="#m08645b2cb1" x="614.578236" y="253.387052" style="stroke: #000000"/>
     <use xlink:href="#m08645b2cb1" x="678.468156" y="228.562332" style="stroke: #000000"/>
     <use xlink:href="#m08645b2cb1" x="742.358075" y="238.670554" style="stroke: #000000"/>
     <use xlink:href="#m08645b2cb1" x="806.247995" y="267.779558" style="stroke: #000000"/>
     <use xlink:href="#m08645b2cb1" x="870.137914" y="253.909751" style="stroke: #000000"/>
     <use xlink:href="#m08645b2cb1" x="934.027834" y="264.120056" style="stroke: #000000"/>
     <use xlink:href="#m08645b2cb1" x="997.917754" y="278.957572" style="stroke: #000000"/>
     <use xlink:href="#m08645b2cb1" x="1061.807673" y="281.226932" style="stroke: #000000"/>
    </g>
   </g>
   <g id="line2d_31">
    <g clip-path="url(#pd10e18a6a1)">
     <use xlink:href="#m08645b2cb1" x="167.348799" y="208.712613" style="stroke: #000000"/>
     <use xlink:href="#m08645b2cb1" x="231.238718" y="259.079802" style="stroke: #000000"/>
     <use xlink:href="#m08645b2cb1" x="295.128638" y="260.501132" style="stroke: #000000"/>
     <use xlink:href="#m08645b2cb1" x="359.018558" y="245.683823" style="stroke: #000000"/>
     <use xlink:href="#m08645b2cb1" x="422.908477" y="281.659064" style="stroke: #000000"/>
     <use xlink:href="#m08645b2cb1" x="486.798397" y="270.601301" style="stroke: #000000"/>
     <use xlink:href="#m08645b2cb1" x="550.688316" y="243.980353" style="stroke: #000000"/>
     <use xlink:href="#m08645b2cb1" x="614.578236" y="229.311366" style="stroke: #000000"/>
     <use xlink:href="#m08645b2cb1" x="678.468156" y="182.80692" style="stroke: #000000"/>
     <use xlink:href="#m08645b2cb1" x="742.358075" y="223.429799" style="stroke: #000000"/>
     <use xlink:href="#m08645b2cb1" x="806.247995" y="255.254406" style="stroke: #000000"/>
     <use xlink:href="#m08645b2cb1" x="870.137914" y="239.779399" style="stroke: #000000"/>
     <use xlink:href="#m08645b2cb1" x="934.027834" y="251.271029" style="stroke: #000000"/>
     <use xlink:href="#m08645b2cb1" x="997.917754" y="264.135231" style="stroke: #000000"/>
     <use xlink:href="#m08645b2cb1" x="1061.807673" y="261.541844" style="stroke: #000000"/>
    </g>
   </g>
   <g id="text_21">
    <g id="patch_35">
     <path d="M 126.073295 87.172061 
L 314.04267 87.172061 
Q 321.64267 87.172061 321.64267 79.572061 
L 321.64267 41.257967 
Q 321.64267 33.657967 314.04267 33.657967 
L 126.073295 33.657967 
Q 118.473295 33.657967 118.473295 41.257967 
L 118.473295 79.572061 
Q 118.473295 87.172061 126.073295 87.172061 
z
" style="fill: #e0e0e0; opacity: 0.9; stroke: #606060; stroke-width: 1.2; stroke-linejoin: miter"/>
    </g>
    <text style="font-style: italic; font-size: 19px; font-family: 'Arial'" transform="translate(126.073295 55.032967)">Ontological Distinction</text>
    <text style="font-style: italic; font-size: 19px; font-family: 'Arial'" transform="translate(187.866342 75.573154)">(I Exist)</text>
   </g>
   <g id="text_22">
    <g id="patch_36">
     <path d="M 338.325397 143.614676 
L 485.130085 143.614676 
Q 492.730085 143.614676 492.730085 136.014676 
L 492.730085 98.264644 
Q 492.730085 90.664644 485.130085 90.664644 
L 338.325397 90.664644 
Q 330.725397 90.664644 330.725397 98.264644 
L 330.725397 136.014676 
Q 330.725397 143.614676 338.325397 143.614676 
z
" style="fill: #e0e0e0; opacity: 0.9; stroke: #606060; stroke-width: 1.2; stroke-linejoin: miter"/>
    </g>
    <text style="font-style: italic; font-size: 19px; font-family: 'Arial'" transform="translate(338.325397 111.641832)">Depth Perception</text>
    <text style="font-style: italic; font-size: 19px; font-family: 'Arial'" transform="translate(363.163444 132.015769)">(I Perceive)</text>
   </g>
   <g id="text_23">
    <g id="patch_37">
     <path d="M 522.619297 143.697801 
L 684.175703 143.697801 
Q 691.775703 143.697801 691.775703 136.097801 
L 691.775703 98.015269 
Q 691.775703 90.415269 684.175703 90.415269 
L 522.619297 90.415269 
Q 515.019297 90.415269 515.019297 98.015269 
L 515.019297 136.097801 
Q 515.019297 143.697801 522.619297 143.697801 
z
" style="fill: #e0e0e0; opacity: 0.9; stroke: #606060; stroke-width: 1.2; stroke-linejoin: miter"/>
    </g>
    <text style="font-style: italic; font-size: 19px; font-family: 'Arial'" transform="translate(522.619297 111.558707)">Recursive Thinking</text>
    <text style="font-style: italic; font-size: 19px; font-family: 'Arial'" transform="translate(568.563672 132.098894)">(I Think)</text>
   </g>
   <g id="text_24">
    <g id="patch_38">
     <path d="M 729.080853 143.813582 
L 861.053665 143.813582 
Q 868.653665 143.813582 868.653665 136.213582 
L 868.653665 97.899488 
Q 868.653665 90.299488 861.053665 90.299488 
L 729.080853 90.299488 
Q 721.480853 90.299488 721.480853 97.899488 
L 721.480853 136.213582 
Q 721.480853 143.813582 729.080853 143.813582 
z
" style="fill: #e0e0e0; opacity: 0.9; stroke: #606060; stroke-width: 1.2; stroke-linejoin: miter"/>
    </g>
    <text style="font-style: italic; font-size: 19px; font-family: 'Arial'" transform="translate(729.080853 111.674488)">Social Mirroring</text>
    <text style="font-style: italic; font-size: 19px; font-family: 'Arial'" transform="translate(751.782884 132.214676)">(I Interact)</text>
   </g>
   <g id="text_25">
    <g id="patch_39">
     <path d="M 897.50233 87.200264 
L 1075.971705 87.200264 
Q 1083.571705 87.200264 1083.571705 79.600264 
L 1083.571705 41.173358 
Q 1083.571705 33.573358 1075.971705 33.573358 
L 897.50233 33.573358 
Q 889.90233 33.573358 889.90233 41.173358 
L 889.90233 79.600264 
Q 889.90233 87.200264 897.50233 87.200264 
z
" style="fill: #e0e0e0; opacity: 0.9; stroke: #606060; stroke-width: 1.2; stroke-linejoin: miter"/>
    </g>
    <text style="font-style: italic; font-size: 19px; font-family: 'Arial'" transform="translate(897.50233 55.004764)">Identity &amp; Personality</text>
    <text style="font-style: italic; font-size: 19px; font-family: 'Arial'" transform="translate(944.500611 75.601358)">(I Endure)</text>
   </g>
   <g id="legend_1">
    <g id="patch_40">
     <path d="M 376.144375 81.458594 
L 830.650625 81.458594 
L 830.650625 26.073594 
L 376.144375 26.073594 
z
" style="fill: #ffffff; stroke: #000000; stroke-width: 2.5; stroke-linejoin: miter"/>
    </g>
    <g id="patch_41">
     <path d="M 393.744375 59.486094 
L 437.744375 59.486094 
L 437.744375 44.086094 
L 393.744375 44.086094 
z
" style="fill: #a23b72"/>
    </g>
    <g id="text_26">
     <text style="font-size: 22px; font-family: 'Arial'; text-anchor: start" x="448.744375" y="59.486094" transform="rotate(-0 448.744375 59.486094)">Gemini-3-Pro</text>
    </g>
    <g id="patch_42">
     <path d="M 623.544687 59.486094 
L 667.544687 59.486094 
L 667.544687 44.086094 
L 623.544687 44.086094 
z
" style="fill: #2e86ab"/>
    </g>
    <g id="text_27">
     <text style="font-size: 22px; font-family: 'Arial'; text-anchor: start" x="678.544687" y="59.486094" transform="rotate(-0 678.544687 59.486094)">Deepseek-R1</text>
    </g>
   </g>
  </g>
 </g>
 <defs>
  <clipPath id="pd10e18a6a1">
   <rect x="86.8475" y="15.073594" width="1033.1" height="339.849127"/>
  </clipPath>
 </defs>
</svg>
